<svg xmlns="http://www.w3.org/2000/svg" width="152.72" height="40" viewBox="0 0 152.72 40">
    <g id="Logotype" transform="translate(-1480 -270)">
        <g id="typo" transform="translate(1530 284.5)">
            <g id="Group_8" data-name="Group 8" transform="translate(0 0.528)">
                <path id="Path_83" data-name="Path 83" d="M169.143,61.727V80.644H167.2V78.888a5.292,5.292,0,0,1-4.3,1.946c-3.729,0-6.107-2.973-6.107-6.675,0-3.729,2.378-6.729,6.107-6.729a5.311,5.311,0,0,1,4.3,1.973V61.727Zm-2.027,12.432c0-2.676-1.541-4.838-4.216-4.838s-4.135,2.162-4.135,4.838,1.46,4.783,4.135,4.783S167.117,76.834,167.117,74.159Z" transform="translate(-156.793 -61.727)" fill="#100e0b"/>
                <path id="Path_84" data-name="Path 84" d="M206.141,84.017a6.378,6.378,0,0,1-6.351,6.7c-3.7,0-6.269-2.972-6.269-6.7s2.567-6.729,6.269-6.729A6.4,6.4,0,0,1,206.141,84.017Zm-1.973,0c0-2.676-1.7-4.838-4.378-4.838s-4.3,2.162-4.3,4.838,1.622,4.783,4.3,4.783S204.168,86.693,204.168,84.017Z" transform="translate(-180.061 -71.585)" fill="#100e0b"/>
                <path id="Path_85" data-name="Path 85" d="M235.844,84.132a4.445,4.445,0,0,1-3.054,1c-1.7-.189-2.757-1.243-2.757-4.243v-7h-2V71.917h2V69.053l1.973-.541v3.405h2.756V73.89h-2.756v6.946c0,1.081.054,1.7.513,2.108a2.026,2.026,0,0,0,2.324-.3Z" transform="translate(-201.927 -66.026)" fill="#100e0b"/>
            </g>
            <g id="Group_9" data-name="Group 9" transform="translate(35.154)">
                <path id="Path_86" data-name="Path 86" d="M268.262,74.53a5.193,5.193,0,0,1-.658,2.716A5.065,5.065,0,0,1,265.846,79a8.043,8.043,0,0,1-2.518.959,14.1,14.1,0,0,1-2.9.3,8.319,8.319,0,0,1-4.527-1.216,10.463,10.463,0,0,1-3.176-3.081l3.567-2.108a5.337,5.337,0,0,0,.743.987,5.829,5.829,0,0,0,.987.838,5.309,5.309,0,0,0,1.176.595,3.748,3.748,0,0,0,1.284.229,11.541,11.541,0,0,0,1.189-.067,5.207,5.207,0,0,0,1.216-.27,2.708,2.708,0,0,0,.946-.554,1.228,1.228,0,0,0,.378-.946,1.262,1.262,0,0,0-.31-.865,2.8,2.8,0,0,0-.851-.622,6.512,6.512,0,0,0-1.271-.459q-.729-.189-1.567-.379-1.109-.243-2.324-.608a8.807,8.807,0,0,1-2.23-1.014,5.449,5.449,0,0,1-1.676-1.689,4.878,4.878,0,0,1-.662-2.662,5.589,5.589,0,0,1,2.162-4.54,7.009,7.009,0,0,1,2.216-1.149,8.411,8.411,0,0,1,2.541-.392,8,8,0,0,1,4.256,1.149,10.819,10.819,0,0,1,3.176,2.96l-3.378,2.3a4.824,4.824,0,0,0-.651-.919,5.89,5.89,0,0,0-.923-.838,5.068,5.068,0,0,0-1.126-.622,3.456,3.456,0,0,0-1.289-.243,4.066,4.066,0,0,0-1.031.135,3.251,3.251,0,0,0-.936.406,2.428,2.428,0,0,0-.692.662,1.511,1.511,0,0,0-.271.878,1.038,1.038,0,0,0,.3.744,2.569,2.569,0,0,0,.8.54,8.1,8.1,0,0,0,1.162.419q.662.189,1.419.378,1.189.3,2.459.689A9.158,9.158,0,0,1,265.83,70a5.843,5.843,0,0,1,1.743,1.77A5.048,5.048,0,0,1,268.262,74.53Z" transform="translate(-252.722 -60.287)" fill="#100e0b"/>
                <path id="Path_87" data-name="Path 87" d="M315.775,75.849,311.5,89.606h-4.676l-2.189-8.243-2.19,8.243h-4.675l-4.27-13.757h4l2.54,9.216,2.459-9.216h4.271l2.459,9.216,2.54-9.216Z" transform="translate(-278.56 -70.146)" fill="#100e0b"/>
                <path id="Path_88" data-name="Path 88" d="M367.013,74.915V88.671h-4.054V87.578a7.626,7.626,0,0,1-1.892,1.185,5.351,5.351,0,0,1-2.162.449,7.394,7.394,0,0,1-5.27-2.176,7.607,7.607,0,0,1-1.581-2.365,7.377,7.377,0,0,1,.014-5.77,7.49,7.49,0,0,1,1.608-2.365,7.618,7.618,0,0,1,2.365-1.581,7.177,7.177,0,0,1,2.865-.581,5.373,5.373,0,0,1,2.162.446,8.113,8.113,0,0,1,1.892,1.148V74.915Zm-7.676,10.621a3.623,3.623,0,0,0,1.446-.3,3.949,3.949,0,0,0,1.2-.794,3.719,3.719,0,0,0,0-5.305,3.948,3.948,0,0,0-1.2-.794,3.623,3.623,0,0,0-1.446-.3,3.689,3.689,0,0,0-1.473.3,3.69,3.69,0,0,0-1.987,1.979,3.777,3.777,0,0,0,0,2.935,3.694,3.694,0,0,0,1.987,1.979A3.689,3.689,0,0,0,359.338,85.536Z" transform="translate(-315.285 -69.212)" fill="#100e0b"/>
                <path id="Path_89" data-name="Path 89" d="M406.914,74.374a5.618,5.618,0,0,1,2.27.46,5.955,5.955,0,0,1,3.108,3.108,5.622,5.622,0,0,1,.459,2.27v8.459H408.7V81a2.736,2.736,0,0,0-.243-1.135,3.148,3.148,0,0,0-.649-.946,2.962,2.962,0,0,0-.946-.635,2.883,2.883,0,0,0-1.135-.23,2.794,2.794,0,0,0-1.162.243,3.132,3.132,0,0,0-1.595,1.594,2.8,2.8,0,0,0-.243,1.162v7.622h-4.054V74.915h4.054v1.567a7.19,7.19,0,0,1,1.878-1.527A4.663,4.663,0,0,1,406.914,74.374Z" transform="translate(-345.186 -69.212)" fill="#100e0b"/>
            </g>
        </g>
        <g id="Logo" transform="translate(1480 270)">
            <path id="feather" d="M401.564,544.95c6.957-5.483,15.2-6.846,23.014-3.864a23.384,23.384,0,0,0-8.512-2.487A23.8,23.8,0,0,0,400,542.876c.289.553,1.23,1.547,1.564,2.074" transform="translate(-400 -510.425)" fill="#100e0b" opacity="0.7"/>
            <path id="feather-2" data-name="feather" d="M424.487,568.821c4.636-4.67,10.695-7.363,17.227-6.64a21.669,21.669,0,0,0-18.909,5.289c.38.345,1.276,1.031,1.681,1.35" transform="translate(-418.027 -528.821)" fill="#100e0b" opacity="0.7"/>
            <path id="head" d="M421.2,419.506a8.408,8.408,0,0,1,8.407-8.407c3.579,0,7.418,1.786,8.631,4.937.64,1.665-.539,2,.614,3.66a8.147,8.147,0,0,1,1.138,1.873c0,.854-2.406-1.357-4.259-3.2a34.413,34.413,0,0,0-3.106-3.115,5.212,5.212,0,0,0-8.23,4.249c0,3.781,4.716,6,7.579,8.07l.008,0a36.4,36.4,0,0,1,5.555,4.829,13.971,13.971,0,0,1,3.3,6,20.421,20.421,0,1,0-34.851-7.315,22.218,22.218,0,0,1,17.226-2.412,22.514,22.514,0,0,1,12.832,9.281c-1.145-4.131-5.482-7.506-8.173-9.311-3.553-2.383-6.674-4.6-6.674-9.142" transform="translate(-403.99 -404.537)" fill="#100e0b"/>
        </g>
    </g>
</svg>